HIERARCHY
ROOT Hips
{
	OFFSET 0.00000 0.00000 0.00000
	CHANNELS 6 Xposition Yposition Zposition Zrotation Yrotation Xrotation 
	JOINT LHipJoint
	{
		OFFSET 0 0 0
		CHANNELS 3 Zrotation Yrotation Xrotation
		JOINT LeftHip
		{
			OFFSET 1.40001 -1.72600 0.84541
			CHANNELS 3 Zrotation Yrotation Xrotation
			JOINT LeftKnee
			{
				OFFSET 2.34760 -6.44999 0.00000
				CHANNELS 3 Zrotation Yrotation Xrotation
				JOINT LeftAnkle
				{
					OFFSET 2.50650 -6.88655 0.00000
					CHANNELS 3 Zrotation Yrotation Xrotation
					JOINT LeftToe
					{
						OFFSET 0.12464 -0.34243 1.95563
						CHANNELS 3 Zrotation Yrotation Xrotation
						End Site
						{
							OFFSET 0.00000 -0.00000 1.00479
						}
					}
				}
			}
		}
	}
	JOINT RHipJoint
	{
		OFFSET 0 0 0
		CHANNELS 3 Zrotation Yrotation Xrotation
		JOINT RightHip
		{
			OFFSET -1.40958 -1.72600 0.84541
			CHANNELS 3 Zrotation Yrotation Xrotation
			JOINT RightKnee
			{
				OFFSET -2.37905 -6.53640 0.00000
				CHANNELS 3 Zrotation Yrotation Xrotation
				JOINT RightAnkle
				{
					OFFSET -2.50470 -6.88163 0.00000
					CHANNELS 3 Zrotation Yrotation Xrotation
					JOINT RightToe
					{
						OFFSET -0.12236 -0.33619 1.81785
						CHANNELS 3 Zrotation Yrotation Xrotation
						End Site
						{
							OFFSET -0.00000 -0.00000 0.93746
						}
					}
				}
			}
		}
	}
	JOINT lowerback
	{
		OFFSET 0 0 0
		CHANNELS 3 Zrotation Yrotation Xrotation
		JOINT Chest
		{
			OFFSET -0.02146 1.96915 0.26424
			CHANNELS 3 Zrotation Yrotation Xrotation
			JOINT Chest2
			{
				OFFSET 0.01522 1.99484 0.02086
				CHANNELS 3 Zrotation Yrotation Xrotation
				JOINT lowerneck
				{
					OFFSET 0 0 0
					CHANNELS 3 Zrotation Yrotation Xrotation
					JOINT Neck
					{
						OFFSET -0.02954 1.71757 0.03505
						CHANNELS 3 Zrotation Yrotation Xrotation
						JOINT Head
						{
							OFFSET 0.04170 1.65781 -0.11024
							CHANNELS 3 Zrotation Yrotation Xrotation
							End Site
							{
								OFFSET 0.01600 1.81465 -0.05144
							}
						}
					}
				}
				JOINT LeftCollar
				{
					OFFSET 0 0 0
					CHANNELS 3 Zrotation Yrotation Xrotation
					JOINT LeftShoulder
					{
						OFFSET 2.77679 1.60868 -0.78649
CHANNELS 3 Zrotation Xrotation Yrotation
						JOINT LeftElbow
						{
OFFSET 0 -4.626720 -0.000000
CHANNELS 3 Zrotation Xrotation Yrotation
							JOINT LeftWrist
							{
OFFSET 0 -3.110180 -0.000000
CHANNELS 3 Zrotation Xrotation Yrotation
								JOINT lhand
								{
									OFFSET 0 0 0
CHANNELS 3 Zrotation Xrotation Yrotation
									JOINT LFingers
									{
OFFSET 0 -0.743830 -0.000000
CHANNELS 3 Zrotation Xrotation Yrotation
										End Site
										{
OFFSET 0 -0.599700 -0.000000
										}
									}
								}
								JOINT LThumb
								{
OFFSET 0 0.000000 0.000000
CHANNELS 3 Zrotation Xrotation Yrotation
									End Site
									{
OFFSET 0 -0.608850 0.608850
									}
								}
							}
						}
					}
				}
				JOINT RightCollar
				{
					OFFSET 0 0 0
					CHANNELS 3 Zrotation Yrotation Xrotation
					JOINT RightShoulder
					{
						OFFSET -2.73247 1.63658 -0.74740
CHANNELS 3 Zrotation Xrotation Yrotation
						JOINT RightElbow
						{
OFFSET 0 -4.559190 -0.000000
CHANNELS 3 Zrotation Xrotation Yrotation
							JOINT RightWrist
							{
OFFSET 0 -3.227480 -0.000000
CHANNELS 3 Zrotation Xrotation Yrotation
								JOINT rhand
								{
									OFFSET 0 0 0
CHANNELS 3 Zrotation Xrotation Yrotation
									JOINT RFingers
									{
OFFSET 0 -0.700880 -0.000000
CHANNELS 3 Zrotation Xrotation Yrotation
										End Site
										{
OFFSET 0 -0.565070 -0.000000
										}
									}
								}
								JOINT RThumb
								{
OFFSET 0 0.000000 0.000000
CHANNELS 3 Zrotation Xrotation Yrotation
									End Site
									{
OFFSET 0 -0.573700 0.573700
									}
								}
							}
						}
					}
				}
			}
		}
	}
}
MOTION
Frames: 8
Frame Time: .0083333
0.1720 16.1525 -1.9396 3.9268 7.8099 16.7538 0.0000 0.0000 0.0000 -24.5101 2.6626 -4.8305 1.0397 6.4849 18.1979 0.7536 -19.4108 -19.3917 0.3323 -3.7045 -10.2468 0.0000 0.0000 0.0000 16.0021 5.1139 -50.7511 -0.8825 -5.9885 16.7512 -0.3233 9.3291 -11.2481 -1.0691 6.5731 -18.4565 -4.8466 -3.3793 -14.3434 -0.0184 -3.7736 -4.7071 2.0629 -1.8602 3.3518 -0.4779 -1.8332 -4.3990 2.0556 -2.6271 9.4877 0.6404 -1.2262 3.9098 0.0000 -0.0000 0.0000 10.457 -13.9645 -31.5868 26.3539 -37.556 9.1025 23.5174 -18.0826 16.248 0.0 0.0 0.0 -7.1250 0.0 0.0 -2.8233 12.3638 -2.156 0.0000 -0.0000 0.0000 4.5975 22.5838 -39.6991 -6.1076 -10.4414 -0.5586 -15.5605 46.8953 33.2879 0.0 0.0 0.0 7.1250 0.0 -0.0 20.7834 63.0771 -9.3274
0.1731 16.1304 -1.7258 4.0257 8.1999 16.7980 0.0000 0.0000 0.0000 -24.3527 2.3755 -3.8323 1.0322 6.4621 18.1313 0.6491 -19.5845 -18.7527 0.2244 -3.0490 -8.4151 0.0000 0.0000 0.0000 16.2370 4.6384 -50.8081 -0.8178 -5.7704 16.1197 -0.2616 10.5170 -10.9721 -1.1235 6.7330 -18.9266 -4.7303 -3.4491 -14.3743 -0.0072 -3.8805 -4.7303 1.9895 -1.9125 3.3455 -0.6473 -1.8199 -4.0182 2.1084 -2.5927 9.1102 0.6925 -1.2178 3.7051 0.0000 0.0000 0.0000 10.3823 -14.1438 -31.4841 27.0611 -38.2374 9.5369 23.5658 -18.0147 16.5282 0.0 0.0 0.0 -7.1250 0.0 0.0 -2.8117 12.0569 -2.1651 0.0000 0.0000 0.0000 4.618 22.8276 -40.8864 -6.0221 -10.299 -0.5432 -15.4163 47.445 33.1857 0.0 0.0 0.0 7.1250 0.0 -0.0 20.8478 62.9452 -9.293
0.1757 16.1010 -1.5077 4.0387 8.5489 16.8478 0.0000 0.0000 0.0000 -24.1377 2.0815 -2.8232 1.0148 6.4092 17.9763 0.8238 -18.3565 -19.3964 0.8666 -5.9358 -16.5983 0.0000 0.0000 0.0000 15.9668 4.8329 -50.6652 -0.8194 -5.7761 16.1361 -0.2813 10.5319 -11.2147 -0.9306 6.1454 -17.2067 -4.5280 -3.5504 -14.5177 0.0894 -4.0371 -4.6761 1.9395 -1.9930 3.4852 -0.6564 -1.7909 -4.0688 1.8453 -2.5270 9.0319 0.6099 -1.1968 3.6815 -0.0000 0.0000 0.0000 10.2543 -14.4208 -31.2846 27.7028 -38.8412 9.9367 23.7 -18.2401 16.7794 0.0 0.0 0.0 -7.1250 0.0 0.0 -2.7417 11.7691 -2.1273 -0.0000 0.0000 0.0000 4.4876 22.9484 -41.1764 -5.9939 -10.2521 -0.5382 -15.447 47.7158 33.5824 0.0 0.0 0.0 7.1250 0.0 -0.0 21.1848 63.3186 -9.6358
0.1787 16.0646 -1.2821 3.9308 8.7808 16.8768 0.0000 0.0000 0.0000 -23.8120 1.8546 -1.7833 0.9959 6.3511 17.8066 0.8967 -17.7965 -19.6667 1.5299 -7.8093 -22.1363 0.0000 0.0000 0.0000 15.8969 5.1092 -50.6803 -0.8814 -5.9849 16.7406 -0.3518 9.5868 -11.6843 -1.1084 6.6891 -18.7975 -4.2186 -3.5946 -14.6011 0.2296 -4.1407 -4.6538 1.8889 -2.0454 3.5510 -0.4429 -1.7938 -4.5091 1.3270 -2.5011 9.1746 0.3985 -1.1956 3.8045 0.0000 -0.0000 0.0000 10.1318 -14.6452 -31.2071 28.2267 -39.3241 10.267 23.8036 -18.5233 17.0491 0.0 0.0 0.0 -7.1250 0.0 0.0 -2.6941 11.4655 -2.1072 0.0000 -0.0000 0.0000 4.3688 23.1031 -41.2846 -6.0223 -10.2993 -0.5432 -15.2493 47.6721 33.7169 0.0 0.0 0.0 7.1250 0.0 -0.0 21.5308 63.39 -9.8366
0.1714 16.0525 -1.0523 3.8597 9.0803 16.7726 0.0000 0.0000 0.0000 -23.4081 1.4843 -0.9043 1.0407 6.4881 18.2073 0.7518 -18.2449 -18.8380 1.4253 -7.5493 -21.3534 0.0000 0.0000 0.0000 14.9557 6.2521 -49.7177 -0.9390 -6.1723 17.2851 -0.3479 6.4541 -10.7587 -2.7529 10.2838 -29.9009 -4.0870 -3.6755 -14.5144 0.3755 -4.2771 -4.6643 1.9481 -2.1120 3.5047 -0.3620 -1.8087 -4.5082 0.9415 -2.4896 9.0322 0.2582 -1.2044 3.7459 0.0000 0.0000 0.0000 9.9901 -14.48 -31.141 28.9234 -39.9525 10.7115 23.8454 -18.7795 17.2341 0.0 0.0 0.0 -7.1250 0.0 0.0 -2.6812 11.2611 -2.1084 0.0000 0.0000 0.0000 4.2276 23.2324 -42.1813 -5.9916 -10.2481 -0.5378 -14.941 48.1369 33.5252 0.0 0.0 0.0 7.1250 0.0 -0.0 21.6865 63.1336 -9.7809
0.1582 16.0385 -0.8152 3.7617 9.6620 16.5303 0.0000 0.0000 0.0000 -22.8473 0.9620 0.2266 1.0700 6.5758 18.4646 0.4571 -19.1641 -17.1462 1.0124 -6.4018 -17.9548 0.0000 0.0000 0.0000 14.0268 7.4017 -48.6892 -1.0542 -6.5287 18.3265 -0.3439 4.0176 -10.4283 -3.5735 11.5701 -34.2275 -3.9947 -3.8722 -14.5111 0.5565 -4.5561 -4.5491 2.0302 -2.2534 3.6511 -0.5113 -1.7536 -4.2416 0.8400 -2.3915 8.7124 0.2593 -1.1671 3.5814 -0.0000 0.0000 0.0000 9.8402 -14.2297 -30.947 29.6766 -40.6145 11.1985 23.7271 -18.9796 17.3364 0.0 0.0 0.0 -7.1250 0.0 0.0 -2.7674 11.1683 -2.1816 -0.0000 0.0000 0.0000 4.0736 23.1909 -43.4253 -5.9494 -10.1778 -0.5303 -14.8712 49.2127 33.4552 0.0 0.0 0.0 7.1250 0.0 -0.0 21.6967 63.0514 -9.7439
0.1735 15.9952 -0.6104 3.2022 8.7347 16.7984 0.0000 0.0000 0.0000 -22.5916 0.9139 0.5110 1.1002 6.6648 18.7262 0.3696 -18.7875 -16.2713 1.1894 -6.9206 -19.4804 0.0000 0.0000 0.0000 14.7880 8.0847 -49.3622 -1.2094 -6.9766 19.6461 -0.2996 4.7686 -9.7963 -3.8824 12.0022 -35.7397 -3.0874 -3.4136 -14.7621 0.6490 -4.0771 -4.7017 1.6997 -2.0126 3.5404 -0.5326 -1.7026 -4.1765 0.6896 -2.3071 8.5759 0.2186 -1.1326 3.5184 -0.0000 0.0000 0.0000 9.7525 -13.9518 -30.8459 30.2504 -41.107 11.5739 23.8251 -19.2058 17.5612 0.0 0.0 0.0 -7.1250 0.0 0.0 -2.7211 10.9134 -2.1592 -0.0000 0.0000 0.0000 4.0413 23.1515 -44.9839 -5.8835 -10.0676 -0.5187 -15.1004 50.8964 33.3046 0.0 0.0 0.0 7.1250 0.0 -0.0 21.3044 62.9729 -9.52
0.1647 15.9921 -0.3527 3.0792 9.2878 16.4752 0.0000 0.0000 0.0000 -21.9942 0.6974 1.6117 1.1510 6.8119 19.1592 0.3208 -18.3584 -15.6403 2.0385 -8.9457 -25.6257 0.0000 0.0000 0.0000 14.9419 8.1110 -48.8260 -1.3785 -7.4296 20.9945 -0.2297 4.6800 -8.6385 -1.9892 8.8436 -25.3073 -2.9225 -3.6068 -14.8539 0.8207 -4.3590 -4.5331 1.7238 -2.1557 3.7848 -0.4526 -1.6825 -4.2584 0.3402 -2.2543 8.4526 0.0926 -1.1181 3.4846 -0.0000 -0.0000 0.0000 9.5879 -13.6122 -30.6844 30.7923 -41.5629 11.9318 24.2815 -19.4497 17.7028 0.0 0.0 0.0 -7.1250 0.0 0.0 -2.4330 10.6946 -1.9411 -0.0000 -0.0000 0.0000 3.8928 23.1507 -45.5987 -5.8223 -9.9655 -0.5081 -15.2589 51.8371 33.3721 0.0 0.0 0.0 7.1250 0.0 -0.0 21.1936 63.0761 -9.5195
